<svg xmlns="http://www.w3.org/2000/svg" viewBox="0 0 64 64">
  <defs>
    <linearGradient id="grad" x1="0%" y1="0%" x2="100%" y2="100%">
      <stop offset="0%" stop-color="#2563eb" />
      <stop offset="100%" stop-color="#a855f7" />
    </linearGradient>
  </defs>
  <rect width="64" height="64" rx="12" fill="url(#grad)" />
  <path
    d="M18 34c0-8.837 7.163-16 16-16 3.67 0 7.054 1.19 9.77 3.2l-4.04 4.04A8.995 8.995 0 0 0 34 22c-4.97 0-9 4.03-9 9s4.03 9 9 9c2.49 0 4.74-1.02 6.36-2.64l4.04 4.04A15.932 15.932 0 0 1 34 50c-8.837 0-16-7.163-16-16Z"
    fill="#f8fafc"
  />
</svg>
